<?xml version="1.0" standalone="no"?>
<!DOCTYPE svg PUBLIC "-//W3C//DTD SVG 20010904//EN"
 "http://www.w3.org/TR/2001/REC-SVG-20010904/DTD/svg10.dtd">
<svg version="1.0" xmlns="http://www.w3.org/2000/svg"
 width="512.000000pt" height="512.000000pt" viewBox="0 0 512.000000 512.000000"
 preserveAspectRatio="xMidYMid meet">

<g transform="translate(0.000000,512.000000) scale(0.100000,-0.100000)"
fill="#000000" stroke="none">
<path d="M3397 4775 c-242 -66 -407 -309 -407 -597 0 -46 7 -110 15 -143 33
-127 123 -245 233 -307 l53 -30 -28 -47 c-14 -25 -41 -69 -58 -97 l-30 -52
-64 39 c-128 77 -249 106 -496 115 -374 15 -582 -43 -874 -244 -88 -60 -95
-63 -108 -46 -18 25 -19 23 32 99 75 114 108 205 113 310 3 63 -1 110 -12 154
-9 34 -16 67 -16 71 0 5 21 19 47 30 55 24 126 68 199 122 l52 39 35 -21 c101
-60 270 -21 337 77 20 30 24 48 24 107 -1 122 -58 215 -151 247 -48 16 -137
17 -184 1 -41 -14 -93 -62 -116 -106 -23 -45 -29 -145 -10 -199 l15 -44 -90
-58 c-49 -32 -114 -67 -142 -77 l-53 -20 -74 56 c-184 139 -400 151 -637 35
-310 -151 -364 -520 -112 -769 36 -36 88 -77 116 -92 138 -74 298 -77 453 -7
35 16 65 29 67 29 1 0 12 -15 23 -34 l22 -34 -68 -85 c-82 -102 -152 -219
-206 -340 -46 -103 -67 -220 -67 -367 0 -88 20 -264 35 -301 5 -15 -6 -18 -87
-23 -51 -4 -127 -9 -169 -12 l-76 -6 -7 40 c-17 108 -138 202 -261 202 -129 0
-230 -62 -286 -176 -27 -54 -32 -76 -31 -132 0 -115 48 -211 129 -259 42 -24
58 -28 128 -28 68 0 90 5 145 31 36 17 82 45 102 63 41 36 78 104 78 144 0 15
6 27 13 27 6 0 71 7 142 15 184 21 185 21 185 -13 0 -43 38 -168 76 -250 52
-114 140 -238 233 -330 l84 -84 -37 -37 -37 -38 -72 38 c-153 79 -318 94 -502
45 -117 -32 -164 -57 -231 -125 -135 -139 -201 -355 -164 -534 42 -203 227
-383 431 -417 213 -36 475 78 619 268 67 90 91 155 97 267 6 105 -17 216 -67
324 l-31 65 42 42 41 42 84 -45 c98 -52 216 -94 329 -117 187 -38 471 -37 663
2 l92 19 16 -56 c8 -31 21 -78 29 -104 12 -43 12 -49 -3 -53 -213 -62 -272
-354 -103 -507 57 -52 104 -69 186 -70 172 -1 306 129 292 282 -11 124 -86
228 -203 283 -35 16 -64 32 -64 34 0 4 -31 149 -45 210 -4 18 10 29 88 74 116
66 190 125 297 236 87 91 153 181 171 234 6 16 13 30 17 30 5 0 193 -99 201
-106 2 -2 -8 -30 -23 -63 -163 -365 -20 -708 334 -797 92 -23 222 -15 315 20
163 62 293 210 334 380 15 63 15 275 0 346 -42 199 -188 321 -431 360 -129 20
-288 -28 -388 -117 l-45 -41 -130 65 c-71 36 -131 66 -131 67 -1 0 8 47 21
102 49 216 57 497 20 693 -44 228 -167 469 -346 670 l-80 91 55 94 55 94 78
-25 c113 -37 292 -43 383 -14 49 15 66 17 72 8 3 -7 53 -83 111 -171 l105
-159 -28 -41 c-132 -196 -21 -412 210 -410 175 1 296 166 246 336 -30 103
-114 158 -242 158 l-63 0 -135 178 -136 177 29 25 c47 42 120 138 151 200 64
128 96 323 71 443 -56 269 -319 439 -671 436 -52 0 -117 -7 -143 -14z m363
-141 c130 -39 230 -115 277 -213 25 -50 28 -67 28 -156 -1 -220 -100 -398
-263 -473 -76 -35 -231 -43 -328 -17 -319 86 -440 498 -220 742 53 58 131 107
206 128 68 19 220 13 300 -11z m-1471 -133 c42 -30 64 -68 68 -118 7 -82 -44
-137 -139 -149 -116 -14 -198 115 -137 216 12 19 29 40 38 47 45 35 125 37
170 4z m-855 -402 c72 -27 138 -86 167 -151 33 -73 34 -229 2 -299 -62 -136
-218 -231 -380 -231 -102 0 -166 24 -229 86 -67 68 -97 143 -98 246 -1 66 3
84 32 142 51 104 156 190 272 223 68 18 160 12 234 -16z m1374 -608 c94 -24
207 -73 279 -122 215 -147 388 -427 459 -744 9 -42 18 -141 21 -245 4 -153 2
-188 -17 -280 -47 -229 -145 -381 -340 -527 -57 -43 -169 -113 -180 -113 -4 0
-10 93 -13 208 -4 114 -11 224 -16 246 -12 48 -70 109 -131 138 -25 12 -47 23
-49 25 -3 2 9 18 26 36 103 109 140 298 94 479 -64 248 -219 368 -477 368
-120 0 -242 -24 -318 -62 -175 -88 -284 -300 -256 -498 20 -142 94 -315 159
-372 23 -21 31 -33 22 -36 -26 -9 -84 -67 -97 -98 -8 -18 -18 -120 -25 -250
-6 -120 -13 -220 -14 -222 -2 -2 -18 4 -37 14 -118 60 -271 195 -337 298 -112
172 -180 528 -153 804 26 268 113 447 307 638 173 170 400 287 636 329 117 20
346 13 457 -14z m1570 -288 c51 -38 67 -70 67 -133 0 -48 -4 -63 -25 -85 -49
-53 -135 -70 -205 -41 -106 45 -95 213 17 270 41 21 110 16 146 -11z m-1753
-399 c103 -36 177 -149 194 -294 8 -65 -1 -168 -18 -213 l-11 -28 -51 41 c-28
22 -54 40 -58 40 -5 0 -16 -8 -25 -19 -16 -18 -15 -20 31 -61 63 -55 67 -63
42 -94 l-21 -26 -56 50 c-31 27 -61 50 -67 50 -6 0 -22 -12 -36 -26 l-24 -26
35 -27 c19 -14 48 -38 64 -52 l30 -26 -32 -17 c-17 -9 -39 -16 -49 -16 -11 0
-44 34 -80 80 -35 44 -69 80 -77 80 -7 0 -24 -9 -37 -19 l-24 -19 43 -61 c23
-33 42 -65 42 -72 0 -22 -109 -2 -175 31 -173 88 -257 239 -227 409 32 179
150 300 323 330 74 14 204 6 264 -15z m-1869 -525 c63 -39 109 -177 85 -252
-29 -86 -180 -178 -269 -164 -49 8 -96 60 -116 128 -19 62 -20 86 -5 143 31
125 204 208 305 145z m2067 -361 c24 -16 24 -17 30 -240 3 -123 4 -224 3 -225
-1 -2 -23 28 -49 65 -65 95 -89 117 -116 103 -12 -7 -21 -16 -21 -21 0 -5 29
-51 65 -102 86 -122 93 -137 74 -149 -8 -5 -16 -9 -19 -8 -3 0 -43 49 -90 109
-47 60 -90 112 -97 114 -7 3 -22 -3 -34 -13 l-22 -18 45 -59 c45 -60 98 -139
98 -149 0 -3 -13 -5 -29 -5 -25 0 -38 12 -95 93 -102 142 -92 132 -121 119
-14 -6 -25 -17 -25 -23 0 -7 20 -44 44 -83 24 -39 49 -82 56 -95 l12 -24 -173
7 c-96 3 -194 9 -218 13 l-44 6 7 215 c4 118 11 236 17 262 19 91 82 124 188
100 74 -18 175 -14 291 10 108 22 187 21 223 -2z m1594 -133 c265 -118 304
-541 67 -724 -78 -59 -156 -85 -260 -86 -85 0 -96 2 -159 35 -109 56 -171 163
-182 315 -17 235 123 433 341 480 73 16 124 10 193 -20z m-3095 -486 c121 -25
234 -115 286 -227 23 -49 27 -70 27 -147 0 -85 -3 -96 -37 -166 -50 -100 -137
-187 -237 -237 -73 -36 -77 -37 -191 -37 -111 0 -118 1 -183 33 -79 39 -133
99 -169 189 -19 49 -23 77 -23 173 0 111 1 118 33 183 88 179 295 278 494 236z
m1757 -389 c122 -35 195 -180 147 -293 -41 -100 -188 -138 -285 -74 -76 50
-114 183 -77 270 35 81 126 123 215 97z"/>
<path d="M2309 2632 c-62 -40 -137 -153 -141 -213 -3 -28 1 -34 29 -45 l32
-14 32 65 c18 36 51 83 75 105 49 45 50 49 29 90 -18 35 -21 36 -56 12z"/>
</g>
</svg>
