<?xml version="1.0" encoding="iso-8859-1"?>
<!-- Generator: Adobe Illustrator 16.0.0, SVG Export Plug-In . SVG Version: 6.00 Build 0)  -->
<!DOCTYPE svg PUBLIC "-//W3C//DTD SVG 1.1//EN" "http://www.w3.org/Graphics/SVG/1.1/DTD/svg11.dtd">
<svg version="1.1" id="Capa_1" xmlns="http://www.w3.org/2000/svg" xmlns:xlink="http://www.w3.org/1999/xlink" x="0px" y="0px"
	 width="506.725px" height="506.725px" viewBox="0 0 506.725 506.725" style="enable-background:new 0 0 506.725 506.725;"
	 xml:space="preserve">
<g>
	<g>
		<path d="M423.646,310.875l-1.182,2.544c-2.166-3.578-5.195-9.004-8.598-15.097c-9.588-17.18-22.723-40.707-36.322-59.062
			l-0.275-0.357c-13.521-16.73-28.543-24.864-45.924-24.864c-5.672,0-11.617,0.906-17.67,2.691
			c-20.58,6.067-23.755,19.066-24.164,24.36c-0.801,10.211,7.055,29.406,28.068,39.35l0.018,15.223
			c10.441-2.801,23.246-8.416,24.271-16.782c0.85-6.927-2.715-13.582-9.025-16.586c-18.736-8.89-22.17-16.701-21.873-19.534
			c1.316-12.626,27.836-17.128,49.418,9.5c12.729,17.219,25.414,39.943,34.686,56.553c3,5.375,5.598,10.027,7.754,13.698
			L341.236,455.41c-6.062-1.646-11.367-2.385-16.73-2.385c-3.342,0-6.404,0.277-9.383,0.547c-3.275,0.293-6.662,0.598-11.006,0.598
			c-2.889,0-5.897-0.131-9.205-0.402c-19.622-1.605-51.097-16.914-65.492-25.051c-7.11-5.234-7.768-8.619-6.458-15.553h-21.744
			c-1.197,10.256,0.576,22.184,16.074,33.346l0.466,0.336l0.499,0.283c4.61,2.625,45.881,25.715,74.899,28.09
			c3.896,0.318,7.48,0.477,10.963,0.477c5.312,0,9.361-0.365,12.965-0.689c2.715-0.246,5.057-0.457,7.426-0.457
			c3.898,0,8.857,0.494,18.648,4.08l2.104,0.834l-1.102,2.371l53.531,24.891l79.488-170.957L423.646,310.875z"/>
		<path d="M307.58,371.859v-81.408l-5.777-4.063c-6.208-3.675-11.398-8.175-15.564-13.053v75.009H148.129V167.232h138.109v50.417
			c4.386-3.668,10.287-7.003,18.27-9.356c1.025-0.303,2.051-0.577,3.074-0.835v-63.741c0-16.981-13.768-30.747-30.747-30.747h-119.3
			c-16.981,0-30.748,13.766-30.748,30.747v228.145c0,16.981,13.767,30.748,30.748,30.748h119.299
			C293.814,402.607,307.58,388.841,307.58,371.859z M188.648,142.567h57.072v10.768h-57.072V142.567L188.648,142.567z
			 M217.184,378.931c-6.345,0-11.487-5.142-11.487-11.485s5.142-11.486,11.487-11.486c6.343,0,11.485,5.143,11.485,11.486
			S223.528,378.931,217.184,378.931z"/>
		<polygon points="159.746,282.729 159.746,336.691 274.434,336.691 274.434,258.791 235.715,290.031 198.02,234.853 		"/>
		<circle cx="246.532" cy="222.368" r="17.772"/>
		<polygon points="70.228,110.818 131.725,102.86 137.778,43.549 176.001,95.55 214.858,74.693 208.109,95.618 225.161,95.618 
			242.664,41.348 180.736,74.589 125.909,0 116.885,88.415 29.545,99.718 91.092,147.624 42.415,212.627 112.099,201.266 
			112.099,184.823 79.535,190.132 113.631,144.601 		"/>
	</g>
</g>
<g>
</g>
<g>
</g>
<g>
</g>
<g>
</g>
<g>
</g>
<g>
</g>
<g>
</g>
<g>
</g>
<g>
</g>
<g>
</g>
<g>
</g>
<g>
</g>
<g>
</g>
<g>
</g>
<g>
</g>
</svg>
