<?xml version="1.0" standalone="no"?>
<!DOCTYPE svg PUBLIC "-//W3C//DTD SVG 20010904//EN"
 "http://www.w3.org/TR/2001/REC-SVG-20010904/DTD/svg10.dtd">
<svg version="1.0" xmlns="http://www.w3.org/2000/svg"
 width="512.000000pt" height="512.000000pt" viewBox="0 0 512.000000 512.000000"
 preserveAspectRatio="xMidYMid meet">

<g transform="translate(0.000000,512.000000) scale(0.100000,-0.100000)"
fill="#000000" stroke="none">
<path d="M640 2560 l0 -1920 160 0 160 0 0 400 0 400 174 0 175 0 33 -62 c94
-180 300 -284 495 -251 140 24 283 129 348 255 l30 58 1133 0 1132 0 0 160 0
160 -1135 0 -1135 0 -20 43 c-52 110 -160 207 -278 249 -81 29 -214 29 -302
-1 -118 -41 -221 -132 -279 -249 l-21 -42 -175 0 -175 0 0 320 0 320 1134 0
1135 0 33 -62 c94 -180 300 -284 495 -251 140 24 283 129 348 255 l30 58 173
0 172 0 0 160 0 160 -175 0 -175 0 -20 43 c-52 110 -160 207 -278 249 -81 29
-214 29 -302 -1 -118 -41 -221 -132 -279 -248 l-21 -43 -1135 0 -1135 0 0 320
0 320 574 0 575 0 33 -62 c94 -180 300 -284 495 -251 140 24 283 129 348 255
l30 58 733 0 732 0 0 160 0 160 -735 0 -735 0 -20 43 c-52 110 -160 207 -278
249 -81 29 -214 29 -302 -1 -118 -41 -221 -132 -279 -248 l-21 -43 -575 0
-575 0 0 400 0 400 -160 0 -160 0 0 -1920z m1983 1106 c103 -43 128 -177 48
-257 -65 -65 -157 -65 -222 0 -66 65 -65 155 1 221 50 50 110 63 173 36z
m1120 -960 c103 -43 128 -177 48 -257 -113 -113 -296 -12 -267 147 8 40 72
110 108 117 46 9 79 7 111 -7z m-1920 -960 c103 -43 128 -177 48 -257 -113
-113 -296 -12 -267 147 8 40 72 110 108 117 46 9 79 7 111 -7z"/>
</g>
</svg>
